<svg xmlns="http://www.w3.org/2000/svg" width="271.687" height="181.359" viewBox="0 0 350 233.636" xmlns:v="https://vecta.io/nano"><path d="M132.445 29.562a2.18 2.18 0 0 0-.638 1.539c0 .577.229 1.131.638 1.539l19.205 19.216c.85.85 2.228.85 3.078 0s.85-2.228 0-3.078l-19.216-19.216c-.848-.843-2.218-.843-3.067 0zm62.074 10.603V13.337c0-1.201-.974-2.175-2.175-2.175s-2.175.974-2.175 2.175v26.828c0 1.201.974 2.175 2.175 2.175s2.175-.974 2.175-2.175zM160.796 1.636A2.18 2.18 0 0 0 159.27.08a2.18 2.18 0 0 0-2.11.544 2.18 2.18 0 0 0-.584 2.099l6.525 26.1a2.18 2.18 0 0 0 3.635 1.011 2.18 2.18 0 0 0 .584-2.099zm-28.677 77.516c6.829 9.787 6.775 14.203 6.732 18.487-.326 31.146 21.26 40.77 34.082 41.542a51.54 51.54 0 0 0 2.871.087c11.993.142 23.473-4.857 31.537-13.735l7.123-7.852.12-.141 3.534-3.904a9.85 9.85 0 0 0 2.48-9.75c-1.02-3.459-3.849-6.085-7.374-6.845a8.85 8.85 0 0 0-7.558-11.147 9.14 9.14 0 0 0 .544-3.045 9.79 9.79 0 0 0-7.873-9.624l11.799-11.843a9.84 9.84 0 1 0-14.137-13.691c-12.93 13.8-29.003 29.504-35.343 32.081-3.697 1.522-4.589.337-7.449-4.35-1.986-3.672-4.625-6.952-7.786-9.679-3.763-3.056-8.189-3.143-11.854-.239-4.143 3.273-4.741 8.907-1.446 13.648zm79.006 22.033c1.458-.006 2.856.574 3.882 1.609a5.54 5.54 0 0 1 1.595 3.942c-.014 1.474-.616 2.881-1.671 3.91l-3.447 3.795a5 5 0 0 1-5.633-.946l-.196-.207c-1.842-1.807-2.021-4.713-.413-6.732l5.437-5.437zm-3.262-9.722c1.67 1.656 1.784 4.319.261 6.112a2.08 2.08 0 0 0-.25.272h0l-6.242 6.242c-1.798.658-3.814.236-5.198-1.087l-.261-.261a5.08 5.08 0 0 1-.304-6.699c.87-.674 4.513-3.556 6.449-5.22 1.772-1.073 4.046-.809 5.524.642zm-7.612-12.517c1.035 1.026 1.615 2.425 1.609 3.882a6.88 6.88 0 0 1-2.284 4.589c-1.327 1.153-4.187 3.447-6.297 5.1a5.22 5.22 0 0 1-5.144-1.348l-.141-.141c-2.062-2.064-2.062-5.407 0-7.471l5.111-5.111a5.44 5.44 0 0 1 7.134.489zm-63.977-10.081c2.088-1.653 4.187-1.588 6.405.207a30.33 30.33 0 0 1 6.808 8.548 23.11 23.11 0 0 0 3.763 5.166 2.46 2.46 0 0 0 .13.174c.185.196 4.35 4.752.109 11.375-.594 1.009-.282 2.307.705 2.937s2.296.365 2.96-.599a14.14 14.14 0 0 0 2.001-11.962c1.077-.147 2.13-.436 3.132-.859 8.559-3.513 28.623-24.338 36.866-33.136a5.44 5.44 0 0 1 3.915-1.74 5.53 5.53 0 0 1 3.98 1.609 5.49 5.49 0 0 1 0 7.776l-22.141 22.098c-1.817 1.808-2.838 4.266-2.838 6.829s1.021 5.021 2.838 6.829l.12.12a9.55 9.55 0 0 0 5.557 2.73 9.46 9.46 0 0 0 2.479 8.885l.087.076.087.087a9.39 9.39 0 0 0 6.634 2.719 9.34 9.34 0 0 0 2.697 7.612l.163.185a9.44 9.44 0 0 0 4.578 2.523l-3.262 3.6-.087.098a38.15 38.15 0 0 1-30.765 12.082c-5.604-.486-10.999-2.354-15.703-5.437h1.033.924c5.437-.348 10.407-3.643 14.844-9.787.666-.976.431-2.305-.529-2.994s-2.295-.484-3.005.46c-3.621 5.046-7.504 7.743-11.549 8.015-5.644.37-9.983-4.143-10.048-4.209-.096-.101-.202-.192-.315-.272-3.404-5.372-5.742-12.745-5.633-22.935.065-5.753-.457-10.951-7.515-21.043-1.642-2.305-2.088-5.633.576-7.765zm33.863-24.535l-4.807.696 3.48 3.393-.826 4.785 4.296-2.262 4.296 2.262-.826-4.785 3.48-3.393-4.807-.696-2.142-4.35-2.142 4.35zm6.993-26.154l1.468 3.306 1.74-3.186 3.6-.37-2.49-2.632.761-3.545-3.273 1.555-3.143-1.816.468 3.6-2.697 2.425 3.567.663zm-28.938-1.457l-2.621-2.49-.391 3.6-3.186 1.729 3.306 1.479.663 3.567 2.425-2.697 3.6.478-1.816-3.143 1.566-3.262-3.545.739z" fill="#7344c9"/><path d="M6.87 172.565h15.217v6H6.87v6.783h17.217v5.957H0v-31.783h24.087v5.957H6.87v7.087zm40.913 16.348q-.826 1.13-2.848 2.022-2.022.891-4.413.891-3.696 0-6.413-1.652-2.717-1.652-4.152-4.5-1.435-2.848-1.435-6.326 0-3.478 1.435-6.326 1.435-2.848 4.152-4.5 2.717-1.652 6.413-1.652 2.478 0 4.37.848 1.891.848 2.891 2.152v-2.478h6.435v23.913h-6.435v-2.391zm-1.522-14.457q-1.783-1.891-4.783-1.891-3.043 0-4.804 1.891-1.761 1.891-1.761 4.891 0 2.913 1.804 4.826 1.804 1.913 4.761 1.913 3.043 0 4.804-1.804 1.761-1.804 1.761-4.935 0-3-1.783-4.891zm13.043 13.674l3.391-4.522q1.565 1.087 3.652 1.826 2.087.739 4.087.739 1.478 0 2.457-.609.978-.609.978-1.522 0-.913-1.109-1.283-1.109-.37-2.152-.522-1.043-.152-1.348-.196-2.609-.435-4.5-1.043-1.891-.609-3.435-2.174-1.543-1.565-1.543-4.304 0-4.522 3.283-6.043 3.283-1.522 6.587-1.522 2.826 0 5.217.826 2.391.826 4.739 2.609l-3.391 4.435q-1.696-1-3.348-1.609-1.652-.609-3.435-.609-1.087 0-2.109.478-1.022.478-1.022 1.304 0 1.043 1.413 1.478 1.413.435 3.109.652 3.043.522 4.87 1.087 1.826.565 3.239 2.109 1.413 1.543 1.413 4.37 0 3.739-2.565 5.761-2.565 2.022-7.261 2.022-6.522 0-11.217-3.739zm29.043 12.13l4.13-9.826-10.261-22.957h7.522l6.043 15.217 5.565-15.217h7.522l-13.348 32.783h-7.174zm61.978-10.739q-4.022 2.391-8.761 2.391-4.652 0-8.587-2.217-3.935-2.217-6.239-6-2.304-3.783-2.304-8.261 0-4.435 2.304-8.217 2.304-3.783 6.239-6 3.935-2.217 8.587-2.217 4.696 0 8.739 2.37 4.043 2.37 6.348 6.326l-6.391 2.478q-1.522-2.174-3.848-3.565-2.326-1.391-4.848-1.391-2.783 0-5.13 1.413-2.348 1.413-3.717 3.761-1.37 2.348-1.37 5.043 0 2.696 1.37 5.065 1.37 2.37 3.717 3.783 2.348 1.413 5.13 1.413 2.522 0 4.848-1.413 2.326-1.413 3.848-3.63l6.391 2.478q-2.304 4-6.326 6.391zm16 .674q-2.978-1.674-4.717-4.543-1.739-2.87-1.739-6.261 0-3.348 1.739-6.217 1.739-2.87 4.717-4.543 2.978-1.674 6.5-1.674 3.522 0 6.522 1.674 3 1.674 4.761 4.543 1.761 2.87 1.761 6.217 0 3.391-1.761 6.261-1.761 2.87-4.761 4.543-3 1.674-6.522 1.674-3.522 0-6.5-1.674zm3.196-16.652q-1.522.891-2.391 2.435-.87 1.543-.87 3.413 0 1.957.848 3.5.848 1.543 2.348 2.435 1.5.891 3.37.891 1.826 0 3.326-.891 1.5-.891 2.37-2.457.87-1.565.87-3.478 0-1.87-.87-3.413-.87-1.543-2.37-2.435-1.5-.891-3.326-.891-1.783 0-3.304.891zm57.326-3.891q2.457 2.696 2.457 7.522v14.13h-6.565v-14.13q0-2.565-1.283-3.696-1.283-1.13-3.37-1.13-1.739 0-3.13 1.304-1.391 1.304-1.435 4.348v13.304h-6.565v-14.13q0-2.565-1.283-3.696-1.283-1.13-3.326-1.13-1.87 0-3.239 1.391-1.37 1.391-1.37 4.913l-.043 12.652h-6.478v-23.913h6.478v2.174q1.261-1.13 3.043-1.87 1.783-.739 3.261-.739 5.043 0 7.696 3.261 1.348-1.522 3.348-2.391 2-.87 4.348-.87 5 0 7.457 2.696zm15.63.13q.826-1.13 2.848-2.022 2.022-.891 4.413-.891 3.696 0 6.413 1.652 2.717 1.652 4.152 4.5 1.435 2.848 1.435 6.326 0 3.478-1.435 6.326-1.435 2.848-4.152 4.5-2.717 1.652-6.413 1.652-2.478 0-4.37-.848-1.891-.848-2.891-2.152V199h-6.435v-31.609h6.435v2.391zM244 184.239q1.783 1.891 4.783 1.891 3.043 0 4.804-1.891 1.761-1.891 1.761-4.891 0-2.913-1.804-4.826-1.804-1.913-4.761-1.913-3.043 0-4.804 1.804-1.761 1.804-1.761 4.935 0 3 1.783 4.891zm41.174 4.674q-.826 1.13-2.848 2.022-2.022.891-4.413.891-3.696 0-6.413-1.652-2.717-1.652-4.152-4.5-1.435-2.848-1.435-6.326 0-3.478 1.435-6.326 1.435-2.848 4.152-4.5 2.717-1.652 6.413-1.652 2.478 0 4.37.848 1.891.848 2.891 2.152v-2.478h6.435v23.913h-6.435v-2.391zm-1.522-14.457q-1.783-1.891-4.783-1.891-3.043 0-4.804 1.891-1.761 1.891-1.761 4.891 0 2.913 1.804 4.826 1.804 1.913 4.761 1.913 3.043 0 4.804-1.804 1.761-1.804 1.761-4.935 0-3-1.783-4.891zm34.413-4.848q2.239 2.652 2.239 7.565v14.13h-6.652v-14.13q0-4.826-4.609-4.826-1.783 0-3.217 1.413-1.435 1.413-1.348 4.891v12.652H298v-23.913h6.478v2.13q1.174-1.174 2.957-1.87 1.783-.696 3.435-.696 4.957 0 7.196 2.652zm11.413 30.652l4.13-9.826-10.261-22.957h7.522l6.043 15.217 5.565-15.217H350l-13.348 32.783h-7.174z" fill="#11042a"/><path d="M133.666 227.355q-.519.331-1.204.496-.685.165-1.37.165-1.204 0-2.031-.295-.826-.295-1.322-.909-.496-.614-.72-1.558-.224-.944-.224-2.22v-5.974H125v-1.535q1.653-.685 2.68-2.031 1.027-1.346 1.405-3.495h1.11v3.99h3.447v3.07h-3.447v6.21q0 .519.13.85.13.331.342.519.213.189.484.26.272.071.578.071.401 0 .968-.142.567-.142.968-.472v2.999zm15.544-6.517q0 1.535-.567 2.845-.567 1.31-1.558 2.267-.992.956-2.326 1.511-1.334.555-2.845.555-1.511 0-2.833-.555-1.322-.555-2.314-1.523-.992-.968-1.558-2.279-.567-1.31-.567-2.822 0-1.488.578-2.798.578-1.31 1.57-2.29.992-.98 2.314-1.535 1.322-.555 2.81-.555 1.511 0 2.845.555 1.334.555 2.326 1.511.992.956 1.558 2.279.567 1.322.567 2.833zm-3.4 0q0-.874-.307-1.629-.307-.756-.838-1.322-.531-.567-1.24-.885-.708-.319-1.511-.319-.803 0-1.511.319-.708.319-1.24.885-.531.567-.838 1.322-.307.756-.307 1.629 0 .874.307 1.629.307.756.838 1.322.531.567 1.24.885.708.319 1.511.319.803 0 1.511-.319.708-.319 1.24-.885.531-.567.838-1.322.307-.756.307-1.629zm19.062 0q0 1.535-.567 2.845-.567 1.31-1.558 2.267-.992.956-2.326 1.511-1.334.555-2.845.555-1.511 0-2.833-.555-1.322-.555-2.314-1.523-.992-.968-1.558-2.279-.567-1.31-.567-2.822 0-1.488.578-2.798.578-1.31 1.57-2.29.992-.98 2.314-1.535 1.322-.555 2.81-.555 1.511 0 2.845.555 1.334.555 2.326 1.511.992.956 1.558 2.279.567 1.322.567 2.833zm-3.4 0q0-.874-.307-1.629-.307-.756-.838-1.322-.531-.567-1.24-.885-.708-.319-1.511-.319-.803 0-1.511.319-.708.319-1.24.885-.531.567-.838 1.322-.307.756-.307 1.629 0 .874.307 1.629.307.756.838 1.322.531.567 1.24.885.708.319 1.511.319.803 0 1.511-.319.708-.319 1.24-.885.531-.567.838-1.322.307-.756.307-1.629zm25.94-.024q0 .331-.035.685-.035.354-.083.732h-10.909q.189.59.531 1.122.342.531.838.921.496.39 1.122.614.626.224 1.381.224.921 0 1.842-.319.921-.319 1.535-.862l2.149 2.149q-1.417 1.063-2.774 1.499-1.358.437-2.869.437-1.535 0-2.869-.567-1.334-.567-2.314-1.535-.98-.968-1.547-2.279-.567-1.31-.567-2.798 0-1.488.567-2.798.567-1.31 1.558-2.279.992-.968 2.314-1.535 1.322-.567 2.833-.567 1.44 0 2.763.531 1.322.531 2.338 1.476 1.015.944 1.606 2.255.59 1.31.59 2.892zm-3.565-1.322q-.401-1.299-1.429-2.09-1.027-.791-2.326-.791-1.275 0-2.29.791-1.015.791-1.417 2.09h7.461zm16.229 8.17h-3.424v-.732q-.897.614-1.901.85-1.004.236-2.066.236-.992 0-1.795-.295-.803-.295-1.393-.85-.59-.555-.909-1.31-.319-.756-.319-1.676 0-1.157.508-2.019.508-.862 1.381-1.44.874-.578 2.042-.862 1.169-.283 2.515-.283h1.96q0-1.204-.779-1.913-.779-.708-2.243-.708-.708 0-1.464.26-.756.26-1.511.944l-2.007-2.031q1.086-1.039 2.515-1.606 1.429-.567 2.94-.567 1.417 0 2.527.449 1.11.449 1.795 1.157.897.897 1.263 2.007.366 1.11.366 2.833v7.556zm-3.424-3.4v-2.527h-1.558q-.708 0-1.334.094-.626.094-1.086.319-.46.224-.732.578-.272.354-.272.85 0 .708.555 1.157.555.449 1.429.449.756 0 1.499-.236.744-.236 1.499-.685zm15.449-.425q0 1.015-.472 1.806-.472.791-1.228 1.322-.756.531-1.7.803-.944.272-1.865.272-1.558 0-2.869-.578-1.31-.578-2.302-1.854l2.054-2.078q.614.779 1.417 1.216.803.437 1.724.437.803 0 1.334-.295.531-.295.531-.885 0-.614-.756-1.027-.756-.413-2.125-.815-.803-.236-1.558-.602-.756-.366-1.346-.897-.59-.531-.944-1.216-.354-.685-.354-1.582 0-.992.46-1.783.46-.791 1.204-1.322.744-.531 1.688-.815.944-.283 1.913-.283 3.117 0 5.1 2.361l-2.031 2.054q-.59-.732-1.346-1.157-.756-.425-1.653-.425-.307 0-.649.083-.342.083-.638.236-.295.153-.484.401-.189.248-.189.555 0 .543.72.944.72.401 2.066.803.874.26 1.653.661.779.401 1.37.933.59.531.933 1.204.342.673.342 1.523zm13.962-9.846l-6.139 16.222q-.685 1.818-1.795 2.621-1.11.803-2.645.803-.236 0-.519-.035-.283-.035-.543-.106l-1.133-3.164q.401.189.826.295.425.106.803.106.803 0 1.464-.366.661-.366 1.015-1.358l.472-1.37-5.266-13.648h3.707l3.14 8.784 2.952-8.784h3.66z" fill="#7344c9"/></svg>
