<?xml version="1.0" encoding="UTF-8" standalone="no"?>
<svg
   xmlns:dc="http://purl.org/dc/elements/1.1/"
   xmlns:cc="http://creativecommons.org/ns#"
   xmlns:rdf="http://www.w3.org/1999/02/22-rdf-syntax-ns#"
   xmlns:svg="http://www.w3.org/2000/svg"
   xmlns="http://www.w3.org/2000/svg"
   class="block dark:hidden"
   width="271.68688647293743"
   height="181.359375"
   viewBox="0 0 350 233.63579329885243"
   version="1.1"
   id="svg26">
  <metadata
     id="metadata30">
    <rdf:RDF>
      <cc:Work
         rdf:about="">
        <dc:format>image/svg+xml</dc:format>
        <dc:type
           rdf:resource="http://purl.org/dc/dcmitype/StillImage" />
        <dc:title></dc:title>
      </cc:Work>
    </rdf:RDF>
  </metadata>
  <defs
     id="SvgjsDefs2175" />
  <g
     id="SvgjsG2176"
     featurekey="pxMwYC-0"
     transform="matrix(1.087488588371659,0,0,1.087488588371659,105.39920264708749,-0.017326313073671377)"
     fill="#01696e">
    <title
       id="title3">Miscellaneous 17 final</title>
    <path
       d="M24.87,27.2a2,2,0,0,0,0,2.83L42.53,47.7a2,2,0,0,0,2.83-2.83L27.69,27.2A2,2,0,0,0,24.87,27.2Z"
       id="path5" />
    <path
       d="M81.95,36.95V12.28a2,2,0,1,0-4,0V36.95a2,2,0,0,0,4,0Z"
       id="path7" />
    <path
       d="M50.94,1.52a2,2,0,1,0-3.88,1l6,24a2,2,0,1,0,3.88-1Z"
       id="path9" />
    <path
       d="M24.57,72.8c6.28,9,6.23,13.06,6.19,17C30.46,118.44,50.31,127.29,62.1,128c.9.05,1.77.08,2.64.08a38.56,38.56,0,0,0,29-12.63l6.55-7.22.11-.13,3.25-3.59a9.06,9.06,0,0,0-4.5-15.26A8.14,8.14,0,0,0,92.2,79a8.38,8.38,0,0,0,.5-2.8,9,9,0,0,0-7.24-8.85L96.31,56.46a9.05,9.05,0,1,0-13-12.59C71.42,56.56,56.64,71,50.81,73.37c-3.4,1.4-4.22.31-6.85-4a31.62,31.62,0,0,0-7.16-8.9c-3.46-2.81-7.53-2.89-10.9-.22C22.09,63.26,21.54,68.44,24.57,72.8ZM97.22,93.06a5,5,0,0,1,3.57,1.48,5.09,5.09,0,0,1-.07,7.22l-3.17,3.49a4.6,4.6,0,0,1-5.18-.87l-.18-.19A4.63,4.63,0,0,1,91.81,98l5-5Zm-3-8.94a4.14,4.14,0,0,1,.24,5.62,2,2,0,0,0-.23.25l0,0-5.74,5.74a4.62,4.62,0,0,1-4.78-1l-.24-.24a4.67,4.67,0,0,1-.28-6.16c.8-.62,4.15-3.27,5.93-4.8A4.17,4.17,0,0,1,94.2,84.12Zm-7-11.51a5,5,0,0,1,1.48,3.57,6.33,6.33,0,0,1-2.1,4.22c-1.22,1.06-3.85,3.17-5.79,4.69a4.8,4.8,0,0,1-4.73-1.24l-.13-.13a4.86,4.86,0,0,1,0-6.87l4.7-4.7A5,5,0,0,1,87.21,72.6ZM28.39,63.34c1.92-1.52,3.85-1.46,5.89.19a27.89,27.89,0,0,1,6.26,7.86A21.25,21.25,0,0,0,44,76.14a2,2,0,0,0,.12.16c.17.18,4,4.37.1,10.46a2,2,0,0,0,3.37,2.15,13,13,0,0,0,1.84-11,11.37,11.37,0,0,0,2.88-.79c7.87-3.23,26.32-22.38,33.9-30.47a5,5,0,0,1,3.6-1.6,5.07,5.07,0,0,1,3.66,1.48,5.05,5.05,0,0,1,0,7.15L73.11,74a8.86,8.86,0,0,0,0,12.56l.11.11a8.78,8.78,0,0,0,5.11,2.51,8.7,8.7,0,0,0,2.28,8.17l.08.07.08.08A8.63,8.63,0,0,0,86.87,100a8.59,8.59,0,0,0,2.48,7l.15.17a8.68,8.68,0,0,0,4.21,2.32l-3,3.31-.08.09A35.08,35.08,0,0,1,62.34,124a31.27,31.27,0,0,1-14.44-5c.31,0,.63,0,.95,0l.85,0c5-.32,9.57-3.35,13.65-9a2,2,0,0,0-3.25-2.33c-3.33,4.64-6.9,7.12-10.62,7.37-5.19.34-9.18-3.81-9.24-3.87a2,2,0,0,0-.29-.25c-3.13-4.94-5.28-11.72-5.18-21.09.06-5.29-.42-10.07-6.91-19.35C26.35,68.36,25.94,65.3,28.39,63.34Z"
       id="path11" />
    <polygon
       points="59.53 40.78 55.11 41.42 58.31 44.54 57.55 48.94 61.5 46.86 65.45 48.94 64.69 44.54 67.89 41.42 63.47 40.78 61.5 36.78 59.53 40.78"
       id="polygon13" />
    <polygon
       points="65.96 16.73 67.31 19.77 68.91 16.84 72.22 16.5 69.93 14.08 70.63 10.82 67.62 12.25 64.73 10.58 65.16 13.89 62.68 16.12 65.96 16.73"
       id="polygon15" />
    <polygon
       points="39.35 15.39 36.94 13.1 36.58 16.41 33.65 18 36.69 19.36 37.3 22.64 39.53 20.16 42.84 20.6 41.17 17.71 42.61 14.71 39.35 15.39"
       id="polygon17" />
  </g>
  <g
     id="SvgjsG2177"
     featurekey="Vx5QiU-0"
     transform="matrix(2.173912837445482,0,0,2.173912837445482,-3.3478256867378486,147.8260883057789)"
     fill="#04292a">
    <path
       d="M4.7 11.38 l7 0 l0 2.76 l-7 0 l0 3.12 l7.92 0 l0 2.74 l-11.08 0 l0 -14.62 l11.08 0 l0 2.74 l-7.92 0 l0 3.26 z M23.520000000000003 18.9 q-0.38 0.52 -1.31 0.93 t-2.03 0.41 q-1.7 0 -2.95 -0.76 t-1.91 -2.07 t-0.66 -2.91 t0.66 -2.91 t1.91 -2.07 t2.95 -0.76 q1.14 0 2.01 0.39 t1.33 0.99 l0 -1.14 l2.96 0 l0 11 l-2.96 0 l0 -1.1 z M22.82 12.25 q-0.82 -0.87 -2.2 -0.87 q-1.4 0 -2.21 0.87 t-0.81 2.25 q0 1.34 0.83 2.22 t2.19 0.88 q1.4 0 2.21 -0.83 t0.81 -2.27 q0 -1.38 -0.82 -2.25 z M28.820000000000004 18.54 l1.56 -2.08 q0.72 0.5 1.68 0.84 t1.88 0.34 q0.68 0 1.13 -0.28 t0.45 -0.7 t-0.51 -0.59 t-0.99 -0.24 t-0.62 -0.09 q-1.2 -0.2 -2.07 -0.48 t-1.58 -1 t-0.71 -1.98 q0 -2.08 1.51 -2.78 t3.03 -0.7 q1.3 0 2.4 0.38 t2.18 1.2 l-1.56 2.04 q-0.78 -0.46 -1.54 -0.74 t-1.58 -0.28 q-0.5 0 -0.97 0.22 t-0.47 0.6 q0 0.48 0.65 0.68 t1.43 0.3 q1.4 0.24 2.24 0.5 t1.49 0.97 t0.65 2.01 q0 1.72 -1.18 2.65 t-3.34 0.93 q-3 0 -5.16 -1.72 z M42.18 24.12 l1.9 -4.52 l-4.72 -10.56 l3.46 0 l2.78 7 l2.56 -7 l3.46 0 l-6.14 15.08 l-3.3 0 z M70.69 19.18 q-1.85 1.1 -4.03 1.1 q-2.14 0 -3.95 -1.02 t-2.87 -2.76 t-1.06 -3.8 q0 -2.04 1.06 -3.78 t2.87 -2.76 t3.95 -1.02 q2.16 0 4.02 1.09 t2.92 2.91 l-2.94 1.14 q-0.7 -1 -1.77 -1.64 t-2.23 -0.64 q-1.28 0 -2.36 0.65 t-1.71 1.73 t-0.63 2.32 t0.63 2.33 t1.71 1.74 t2.36 0.65 q1.16 0 2.23 -0.65 t1.77 -1.67 l2.94 1.14 q-1.06 1.84 -2.91 2.94 z M78.05 19.49 q-1.37 -0.77 -2.17 -2.09 t-0.8 -2.88 q0 -1.54 0.8 -2.86 t2.17 -2.09 t2.99 -0.77 t3 0.77 t2.19 2.09 t0.81 2.86 q0 1.56 -0.81 2.88 t-2.19 2.09 t-3 0.77 t-2.99 -0.77 z M79.52 11.83 q-0.7 0.41 -1.1 1.12 t-0.4 1.57 q0 0.9 0.39 1.61 t1.08 1.12 t1.55 0.41 q0.84 0 1.53 -0.41 t1.09 -1.13 t0.4 -1.6 q0 -0.86 -0.4 -1.57 t-1.09 -1.12 t-1.53 -0.41 q-0.82 0 -1.52 0.41 z M105.88999999999999 10.04 q1.13 1.24 1.13 3.46 l0 6.5 l-3.02 0 l0 -6.5 q0 -1.18 -0.59 -1.7 t-1.55 -0.52 q-0.8 0 -1.44 0.6 t-0.66 2 l0 6.12 l-3.02 0 l0 -6.5 q0 -1.18 -0.59 -1.7 t-1.53 -0.52 q-0.86 0 -1.49 0.64 t-0.63 2.26 l-0.02 5.82 l-2.98 0 l0 -11 l2.98 0 l0 1 q0.58 -0.52 1.4 -0.86 t1.5 -0.34 q2.32 0 3.54 1.5 q0.62 -0.7 1.54 -1.1 t2 -0.4 q2.3 0 3.43 1.24 z M113.08 10.1 q0.38 -0.52 1.31 -0.93 t2.03 -0.41 q1.7 0 2.95 0.76 t1.91 2.07 t0.66 2.91 t-0.66 2.91 t-1.91 2.07 t-2.95 0.76 q-1.14 0 -2.01 -0.39 t-1.33 -0.99 l0 4.68 l-2.96 0 l0 -14.54 l2.96 0 l0 1.1 z M113.78 16.75 q0.82 0.87 2.2 0.87 q1.4 0 2.21 -0.87 t0.81 -2.25 q0 -1.34 -0.83 -2.22 t-2.19 -0.88 q-1.4 0 -2.21 0.83 t-0.81 2.27 q0 1.38 0.82 2.25 z M132.72 18.9 q-0.38 0.52 -1.31 0.93 t-2.03 0.41 q-1.7 0 -2.95 -0.76 t-1.91 -2.07 t-0.66 -2.91 t0.66 -2.91 t1.91 -2.07 t2.95 -0.76 q1.14 0 2.01 0.39 t1.33 0.99 l0 -1.14 l2.96 0 l0 11 l-2.96 0 l0 -1.1 z M132.02 12.25 q-0.82 -0.87 -2.2 -0.87 q-1.4 0 -2.21 0.87 t-0.81 2.25 q0 1.34 0.83 2.22 t2.19 0.88 q1.4 0 2.21 -0.83 t0.81 -2.27 q0 -1.38 -0.82 -2.25 z M147.85 10.02 q1.03 1.22 1.03 3.48 l0 6.5 l-3.06 0 l0 -6.5 q0 -2.22 -2.12 -2.22 q-0.82 0 -1.48 0.65 t-0.62 2.25 l0 5.82 l-2.98 0 l0 -11 l2.98 0 l0 0.98 q0.54 -0.54 1.36 -0.86 t1.58 -0.32 q2.28 0 3.31 1.22 z M153.1 24.12 l1.9 -4.52 l-4.72 -10.56 l3.46 0 l2.78 7 l2.56 -7 l3.46 0 l-6.14 15.08 l-3.3 0 z"
       id="path20" />
  </g>
  <g
     id="SvgjsG2178"
     featurekey="aAUSXE-0"
     transform="matrix(1.1806090288917337,0,0,1.1806090288917337,124.64581762910743,204.0497305394223)"
     fill="#01696e">
    <path
       d="M7.64 19.74 q-0.44 0.28 -1.02 0.42 t-1.16 0.14 q-1.02 0 -1.72 -0.25 t-1.12 -0.77 t-0.61 -1.32 t-0.19 -1.88 l0 -5.06 l-1.52 0 l0 -1.3 q1.4 -0.58 2.27 -1.72 t1.19 -2.96 l0.94 0 l0 3.38 l2.92 0 l0 2.6 l-2.92 0 l0 5.26 q0 0.44 0.11 0.72 t0.29 0.44 t0.41 0.22 t0.49 0.06 q0.34 0 0.82 -0.12 t0.82 -0.4 l0 2.54 z M20.806 14.219999999999999 q0 1.3 -0.48 2.41 t-1.32 1.92 t-1.97 1.28 t-2.41 0.47 t-2.4 -0.47 t-1.96 -1.29 t-1.32 -1.93 t-0.48 -2.39 q0 -1.26 0.49 -2.37 t1.33 -1.94 t1.96 -1.3 t2.38 -0.47 q1.28 0 2.41 0.47 t1.97 1.28 t1.32 1.93 t0.48 2.4 z M17.926000000000002 14.219999999999999 q0 -0.74 -0.26 -1.38 t-0.71 -1.12 t-1.05 -0.75 t-1.28 -0.27 t-1.28 0.27 t-1.05 0.75 t-0.71 1.12 t-0.26 1.38 t0.26 1.38 t0.71 1.12 t1.05 0.75 t1.28 0.27 t1.28 -0.27 t1.05 -0.75 t0.71 -1.12 t0.26 -1.38 z M34.072 14.219999999999999 q0 1.3 -0.48 2.41 t-1.32 1.92 t-1.97 1.28 t-2.41 0.47 t-2.4 -0.47 t-1.96 -1.29 t-1.32 -1.93 t-0.48 -2.39 q0 -1.26 0.49 -2.37 t1.33 -1.94 t1.96 -1.3 t2.38 -0.47 q1.28 0 2.41 0.47 t1.97 1.28 t1.32 1.93 t0.48 2.4 z M31.192 14.219999999999999 q0 -0.74 -0.26 -1.38 t-0.71 -1.12 t-1.05 -0.75 t-1.28 -0.27 t-1.28 0.27 t-1.05 0.75 t-0.71 1.12 t-0.26 1.38 t0.26 1.38 t0.71 1.12 t1.05 0.75 t1.28 0.27 t1.28 -0.27 t1.05 -0.75 t0.71 -1.12 t0.26 -1.38 z M53.164 14.2 q0 0.28 -0.03 0.58 t-0.07 0.62 l-9.24 0 q0.16 0.5 0.45 0.95 t0.71 0.78 t0.95 0.52 t1.17 0.19 q0.78 0 1.56 -0.27 t1.3 -0.73 l1.82 1.82 q-1.2 0.9 -2.35 1.27 t-2.43 0.37 q-1.3 0 -2.43 -0.48 t-1.96 -1.3 t-1.31 -1.93 t-0.48 -2.37 t0.48 -2.37 t1.32 -1.93 t1.96 -1.3 t2.4 -0.48 q1.22 0 2.34 0.45 t1.98 1.25 t1.36 1.91 t0.5 2.45 z M50.144 13.08 q-0.34 -1.1 -1.21 -1.77 t-1.97 -0.67 q-1.08 0 -1.94 0.67 t-1.2 1.77 l6.32 0 z M63.89 20 l-2.9 0 l0 -0.62 q-0.76 0.52 -1.61 0.72 t-1.75 0.2 q-0.84 0 -1.52 -0.25 t-1.18 -0.72 t-0.77 -1.11 t-0.27 -1.42 q0 -0.98 0.43 -1.71 t1.17 -1.22 t1.73 -0.73 t2.13 -0.24 l1.66 0 q0 -1.02 -0.66 -1.62 t-1.9 -0.6 q-0.6 0 -1.24 0.22 t-1.28 0.8 l-1.7 -1.72 q0.92 -0.88 2.13 -1.36 t2.49 -0.48 q1.2 0 2.14 0.38 t1.52 0.98 q0.76 0.76 1.07 1.7 t0.31 2.4 l0 6.4 z M60.99 17.12 l0 -2.14 l-1.32 0 q-0.6 0 -1.13 0.08 t-0.92 0.27 t-0.62 0.49 t-0.23 0.72 q0 0.6 0.47 0.98 t1.21 0.38 q0.64 0 1.27 -0.2 t1.27 -0.58 z M74.076 16.759999999999998 q0 0.86 -0.4 1.53 t-1.04 1.12 t-1.44 0.68 t-1.58 0.23 q-1.32 0 -2.43 -0.49 t-1.95 -1.57 l1.74 -1.76 q0.52 0.66 1.2 1.03 t1.46 0.37 q0.68 0 1.13 -0.25 t0.45 -0.75 q0 -0.52 -0.64 -0.87 t-1.8 -0.69 q-0.68 -0.2 -1.32 -0.51 t-1.14 -0.76 t-0.8 -1.03 t-0.3 -1.34 q0 -0.84 0.39 -1.51 t1.02 -1.12 t1.43 -0.69 t1.62 -0.24 q2.64 0 4.32 2 l-1.72 1.74 q-0.5 -0.62 -1.14 -0.98 t-1.4 -0.36 q-0.26 0 -0.55 0.07 t-0.54 0.2 t-0.41 0.34 t-0.16 0.47 q0 0.46 0.61 0.8 t1.75 0.68 q0.74 0.22 1.4 0.56 t1.16 0.79 t0.79 1.02 t0.29 1.29 z M85.902 8.42 l-5.2 13.74 q-0.58 1.54 -1.52 2.22 t-2.24 0.68 q-0.2 0 -0.44 -0.03 t-0.46 -0.09 l-0.96 -2.68 q0.34 0.16 0.7 0.25 t0.68 0.09 q0.68 0 1.24 -0.31 t0.86 -1.15 l0.4 -1.16 l-4.46 -11.56 l3.14 0 l2.66 7.44 l2.5 -7.44 l3.1 0 z"
       id="path23" />
  </g>
</svg>
